<?xml version="1.0" encoding="utf-8"?>
<!-- Generator: Adobe Illustrator 28.2.0, SVG Export Plug-In . SVG Version: 6.00 Build 0)  -->
<svg version="1.1" id="Layer_1" xmlns="http://www.w3.org/2000/svg" xmlns:xlink="http://www.w3.org/1999/xlink" x="0px" y="0px"
	 viewBox="0 0 119.1 53.3" style="enable-background:new 0 0 119.1 53.3;" xml:space="preserve">
<style type="text/css">
	.st0{fill:#F47421;}
	.st1{fill:#FFFFFF;}
</style>
<polygon class="st0" points="43.7,39.2 0,53.3 28.3,15.9 44.5,21.1 "/>
<rect x="10.5" y="0" class="st0" width="108.7" height="48"/>
<path class="st1" d="M24.9,18.9V9.9h1.3l4.9,6.6l-0.7,0.1V9.9h1.6v8.9h-1.3L26,12.2l0.6-0.1v6.8L24.9,18.9L24.9,18.9z"/>
<path class="st1" d="M36.9,19c-0.6,0-1.2-0.1-1.8-0.4c-0.5-0.3-0.9-0.7-1.2-1.2c-0.3-0.5-0.5-1.1-0.5-1.8s0.2-1.2,0.5-1.8
	c0.3-0.5,0.7-0.9,1.2-1.2s1.1-0.4,1.8-0.4s1.2,0.1,1.7,0.4s0.9,0.7,1.2,1.2s0.5,1.1,0.5,1.8s-0.2,1.2-0.5,1.8s-0.7,0.9-1.2,1.2
	S37.5,19,36.9,19L36.9,19z M36.9,17.6c0.3,0,0.7-0.1,0.9-0.2s0.5-0.4,0.6-0.7c0.2-0.3,0.2-0.6,0.2-1s-0.1-0.7-0.2-1
	c-0.2-0.3-0.4-0.5-0.6-0.7c-0.3-0.2-0.6-0.3-0.9-0.3s-0.7,0.1-1,0.3s-0.5,0.4-0.6,0.7c-0.2,0.3-0.2,0.6-0.2,1s0.1,0.7,0.2,1
	c0.2,0.3,0.4,0.5,0.6,0.7S36.5,17.6,36.9,17.6z"/>
<path class="st1" d="M43,18.9l-2.2-6.5h1.7l1.6,5h-0.6l1.8-5h1.4l1.7,4.9h-0.6l1.6-4.9h1.7l-2.2,6.5h-1.4l-1.8-5.2h0.5l-1.8,5.2
	C44.4,18.9,43,18.9,43,18.9z"/>
<path class="st1" d="M53.5,18.9l3.1-8.9h2.1l3.1,8.9H60L59.4,17h-3.5l-0.7,1.9H53.5L53.5,18.9z M56.4,15.5h2.5l-1.5-4.4h0.5
	C57.9,11.1,56.4,15.5,56.4,15.5z"/>
<path class="st1" d="M64.3,18.9l-2.6-6.5h1.7l1.9,5.1h-0.6l1.9-5.1h1.7l-2.6,6.5C65.7,18.9,64.3,18.9,64.3,18.9z"/>
<path class="st1" d="M70.8,19c-0.5,0-0.8-0.1-1.2-0.2s-0.6-0.4-0.8-0.6c-0.2-0.3-0.3-0.6-0.3-1s0.1-0.7,0.2-1
	c0.2-0.3,0.4-0.5,0.7-0.7c0.3-0.2,0.8-0.3,1.3-0.4l2.1-0.4v1.2l-1.8,0.3c-0.3,0.1-0.5,0.2-0.7,0.3c-0.2,0.1-0.2,0.3-0.2,0.6
	s0.1,0.4,0.3,0.5c0.2,0.1,0.4,0.2,0.6,0.2c0.3,0,0.6-0.1,0.9-0.2s0.4-0.3,0.6-0.6s0.2-0.5,0.2-0.8v-1.7c0-0.3-0.1-0.5-0.3-0.7
	s-0.5-0.3-0.9-0.3c-0.3,0-0.6,0.1-0.9,0.3s-0.4,0.4-0.6,0.7l-1.3-0.6c0.1-0.3,0.3-0.6,0.6-0.9s0.6-0.4,1-0.6
	c0.4-0.1,0.8-0.2,1.2-0.2c0.5,0,1,0.1,1.4,0.3c0.4,0.2,0.7,0.5,0.9,0.8s0.3,0.8,0.3,1.2v4.3h-1.5v-1.1l0.3,0
	c-0.2,0.3-0.4,0.5-0.6,0.7s-0.5,0.3-0.8,0.4C71.5,19,71.2,19,70.8,19L70.8,19z"/>
<path class="st1" d="M75.8,11.6V9.9h1.6v1.7H75.8z M75.8,18.9v-6.5h1.6v6.5H75.8z"/>
<path class="st1" d="M78.8,18.9V9.8h1.6v9.1H78.8z"/>
<path class="st1" d="M83.8,19c-0.5,0-0.8-0.1-1.2-0.2s-0.6-0.4-0.8-0.6c-0.2-0.3-0.3-0.6-0.3-1s0.1-0.7,0.2-1
	c0.2-0.3,0.4-0.5,0.7-0.7c0.3-0.2,0.8-0.3,1.3-0.4l2.1-0.4v1.2l-1.8,0.3c-0.3,0.1-0.5,0.2-0.7,0.3c-0.2,0.1-0.2,0.3-0.2,0.6
	s0.1,0.4,0.3,0.5c0.2,0.1,0.4,0.2,0.6,0.2c0.3,0,0.6-0.1,0.9-0.2s0.4-0.3,0.6-0.6s0.2-0.5,0.2-0.8v-1.7c0-0.3-0.1-0.5-0.3-0.7
	s-0.5-0.3-0.9-0.3c-0.3,0-0.6,0.1-0.9,0.3s-0.4,0.4-0.6,0.7l-1.3-0.6c0.1-0.3,0.3-0.6,0.6-0.9s0.6-0.4,1-0.6
	c0.4-0.1,0.8-0.2,1.2-0.2c0.5,0,1,0.1,1.4,0.3c0.4,0.2,0.7,0.5,0.9,0.8s0.3,0.8,0.3,1.2v4.3h-1.5v-1.1l0.3,0
	c-0.2,0.3-0.4,0.5-0.6,0.7s-0.5,0.3-0.8,0.4C84.5,19,84.2,19,83.8,19L83.8,19z"/>
<path class="st1" d="M92.4,19c-0.5,0-0.9-0.1-1.3-0.3c-0.4-0.2-0.7-0.5-0.9-0.8l0.2-0.3v1.3h-1.5V9.8h1.6v3.9l-0.2-0.3
	c0.2-0.4,0.5-0.6,0.9-0.8c0.4-0.2,0.8-0.3,1.3-0.3c0.6,0,1.2,0.1,1.7,0.5c0.5,0.3,0.9,0.7,1.2,1.2s0.4,1.1,0.4,1.7
	c0,0.6-0.1,1.2-0.4,1.7s-0.7,0.9-1.2,1.2S93,19,92.4,19L92.4,19z M92.2,17.6c0.4,0,0.7-0.1,1-0.2s0.5-0.4,0.7-0.7
	c0.2-0.3,0.2-0.6,0.2-1s-0.1-0.7-0.2-1c-0.2-0.3-0.4-0.5-0.7-0.7c-0.3-0.2-0.6-0.3-1-0.3s-0.7,0.1-0.9,0.2s-0.5,0.4-0.7,0.7
	s-0.2,0.6-0.2,1s0.1,0.7,0.2,1c0.2,0.3,0.4,0.5,0.7,0.7S91.9,17.6,92.2,17.6L92.2,17.6z"/>
<path class="st1" d="M96.9,18.9V9.8h1.6v9.1H96.9z"/>
<path class="st1" d="M103,19c-0.7,0-1.3-0.1-1.8-0.5c-0.5-0.3-0.9-0.7-1.2-1.2s-0.4-1.1-0.4-1.7s0.1-1.2,0.4-1.8
	c0.3-0.5,0.7-0.9,1.2-1.2c0.5-0.3,1-0.4,1.7-0.4c0.5,0,1,0.1,1.3,0.2s0.7,0.4,1,0.7s0.5,0.6,0.6,1s0.2,0.8,0.2,1.2
	c0,0.1,0,0.2,0,0.4c0,0.1,0,0.2-0.1,0.3h-5v-1.2h4.2l-0.7,0.6c0.1-0.4,0.1-0.7-0.1-1c-0.1-0.3-0.3-0.5-0.5-0.7s-0.5-0.2-0.9-0.2
	s-0.6,0.1-0.9,0.2c-0.3,0.2-0.4,0.4-0.6,0.7c-0.1,0.3-0.2,0.7-0.2,1.1c0,0.4,0,0.7,0.2,1.1c0.1,0.3,0.3,0.5,0.6,0.7
	c0.3,0.2,0.6,0.2,0.9,0.2s0.7-0.1,0.9-0.2s0.4-0.4,0.6-0.6l1.3,0.6c-0.1,0.3-0.3,0.6-0.6,0.8s-0.6,0.4-1,0.6
	C103.8,18.9,103.4,19,103,19L103,19z"/>
<g>
	<path class="st1" d="M31,37.5l-3.9-11.2h2.2l3.1,9.3h-0.4l3.1-9.3h2.2l-3.9,11.2H31z"/>
	<path class="st1" d="M41.5,37.7c-0.8,0-1.6-0.2-2.2-0.6c-0.6-0.4-1.1-0.9-1.5-1.5c-0.4-0.7-0.5-1.4-0.5-2.2c0-0.8,0.2-1.6,0.5-2.2
		c0.4-0.6,0.8-1.1,1.5-1.5c0.6-0.4,1.3-0.6,2.1-0.6c0.6,0,1.2,0.1,1.7,0.3c0.5,0.2,0.9,0.5,1.2,0.9s0.6,0.8,0.8,1.3
		c0.2,0.5,0.3,1,0.3,1.5c0,0.1,0,0.3,0,0.4s0,0.3-0.1,0.4h-6.3v-1.5h5.2l-0.9,0.7c0.1-0.5,0.1-0.9-0.1-1.2c-0.1-0.4-0.4-0.6-0.7-0.9
		c-0.3-0.2-0.7-0.3-1.1-0.3c-0.4,0-0.8,0.1-1.1,0.3c-0.3,0.2-0.6,0.5-0.7,0.9s-0.2,0.9-0.2,1.4c0,0.5,0,0.9,0.2,1.3
		c0.2,0.4,0.4,0.7,0.8,0.9c0.3,0.2,0.7,0.3,1.2,0.3c0.5,0,0.8-0.1,1.2-0.3c0.3-0.2,0.6-0.4,0.7-0.8l1.6,0.8c-0.2,0.4-0.4,0.7-0.8,1
		c-0.3,0.3-0.7,0.5-1.2,0.7C42.5,37.6,42,37.7,41.5,37.7z"/>
	<path class="st1" d="M46.8,37.5v-8.2h1.9v1.8l-0.2-0.3c0.2-0.6,0.5-1,0.9-1.3c0.4-0.2,0.9-0.4,1.5-0.4h0.5v1.7h-0.7
		c-0.6,0-1,0.2-1.4,0.5c-0.3,0.3-0.5,0.8-0.5,1.5v4.6H46.8z"/>
	<path class="st1" d="M55.5,37.7c-0.9,0-1.6-0.2-2.3-0.6c-0.6-0.4-1.1-1-1.3-1.7l1.5-0.7c0.2,0.5,0.5,0.8,0.9,1.1
		c0.4,0.3,0.8,0.4,1.3,0.4c0.4,0,0.6-0.1,0.9-0.2c0.2-0.2,0.3-0.4,0.3-0.6c0-0.2,0-0.3-0.1-0.4c-0.1-0.1-0.2-0.2-0.3-0.3
		c-0.1-0.1-0.3-0.1-0.5-0.2L54.4,34c-0.7-0.2-1.2-0.5-1.6-0.9c-0.4-0.4-0.5-0.9-0.5-1.5c0-0.5,0.1-0.9,0.4-1.3
		c0.3-0.4,0.6-0.7,1.1-0.9c0.5-0.2,1-0.3,1.6-0.3c0.8,0,1.5,0.2,2,0.6s1,0.9,1.3,1.6l-1.5,0.7c-0.1-0.4-0.4-0.7-0.7-0.9
		s-0.7-0.3-1.1-0.3c-0.3,0-0.6,0.1-0.8,0.2s-0.3,0.3-0.3,0.6c0,0.2,0,0.3,0.1,0.4c0.1,0.1,0.2,0.2,0.3,0.3c0.1,0.1,0.3,0.1,0.5,0.2
		l1.3,0.4c0.7,0.2,1.2,0.5,1.6,0.9c0.4,0.4,0.5,0.9,0.5,1.5c0,0.5-0.1,0.9-0.4,1.3c-0.3,0.4-0.6,0.7-1.1,0.9
		C56.7,37.6,56.1,37.7,55.5,37.7z"/>
	<path class="st1" d="M60.1,28.4v-2.1h2v2.1H60.1z M60.1,37.5v-8.2h2v8.2H60.1z"/>
	<path class="st1" d="M67.9,37.7c-0.8,0-1.5-0.2-2.2-0.6s-1.2-0.9-1.6-1.5s-0.6-1.4-0.6-2.2c0-0.8,0.2-1.6,0.6-2.2s0.9-1.1,1.6-1.5
		c0.7-0.4,1.4-0.6,2.2-0.6c0.8,0,1.5,0.2,2.2,0.6s1.2,0.9,1.6,1.5c0.4,0.6,0.6,1.4,0.6,2.2c0,0.8-0.2,1.6-0.6,2.2s-0.9,1.1-1.6,1.5
		C69.4,37.5,68.7,37.7,67.9,37.7z M67.9,35.9c0.4,0,0.8-0.1,1.2-0.3c0.3-0.2,0.6-0.5,0.8-0.9c0.2-0.4,0.3-0.8,0.3-1.3
		c0-0.5-0.1-0.9-0.3-1.3c-0.2-0.4-0.5-0.7-0.8-0.9s-0.7-0.3-1.2-0.3c-0.5,0-0.8,0.1-1.2,0.3s-0.6,0.5-0.8,0.9
		c-0.2,0.4-0.3,0.8-0.3,1.3c0,0.5,0.1,0.9,0.3,1.3c0.2,0.4,0.5,0.7,0.8,0.9C67.1,35.7,67.5,35.9,67.9,35.9z"/>
	<path class="st1" d="M73.7,37.5v-8.2h1.9v1.6l-0.2-0.3c0.2-0.5,0.5-0.9,0.9-1.1c0.4-0.3,0.9-0.4,1.5-0.4c0.6,0,1.1,0.1,1.6,0.4
		c0.5,0.3,0.8,0.6,1.1,1.1c0.3,0.5,0.4,1,0.4,1.6v5.3h-2v-4.8c0-0.4-0.1-0.7-0.2-0.9s-0.3-0.5-0.6-0.6c-0.2-0.1-0.5-0.2-0.9-0.2
		c-0.3,0-0.6,0.1-0.9,0.2c-0.3,0.1-0.4,0.3-0.6,0.6s-0.2,0.6-0.2,0.9v4.8H73.7z"/>
	<path class="st1" d="M87,37.5V28h-2.2v-1.7h4.2v11.2H87z"/>
	<path class="st1" d="M92.3,37.5v-2.1h2v2.1H92.3z"/>
	<path class="st1" d="M98.3,37.5V28h-2.2v-1.7h4.2v11.2H98.3z"/>
</g>
</svg>
