<?xml version="1.0" encoding="UTF-8"?><svg id="Layer_1" xmlns="http://www.w3.org/2000/svg" viewBox="0 0 345.89999 286.39999"><defs><style>.cls-1{fill:none;}.cls-2{fill:#545cec;}</style></defs><rect id="_Slice_" class="cls-1" x="-170.5" y="-174.7" width="611.40002" height="611.40001"/><path class="cls-2" d="M291.09552,35.03255c-22.08334-10.33225-45.6959-17.8413-70.38218-22.11701-3.03177,5.48132-6.57375,12.85381-9.01582,18.71861-26.24214-3.94649-52.24298-3.94649-78.00252,0-2.4416-5.86479-6.06402-13.23729-9.12291-18.71861-24.71293,4.27572-48.35261,11.81236-70.43596,22.17173C9.59382,102.39652-2.48086,168.03393,3.55649,232.73931c29.5428,22.06183,58.17333,35.46374,86.32068,44.23356,6.94975-9.56483,13.14797-19.73246,18.48759-30.44819-10.16951-3.86419-19.90971-8.63281-29.11305-14.16884,2.4416-1.80887,4.82988-3.70005,7.13727-5.64594,56.13383,26.25525,117.12469,26.25525,172.5879,0,2.33451,1.94588,4.72234,3.83707,7.13727,5.64594-9.23045,5.56316-18.99732,10.33177-29.16683,14.19643,5.33962,10.68813,11.5112,20.88336,18.48758,30.44772,28.17447-8.76982,56.83158-22.17127,86.37439-44.26069,7.08397-75.01004-12.10136-140.04465-50.71377-197.70676ZM116.01223,192.94609c-16.85082,0-30.66986-15.73127-30.66986-34.88806s13.52396-34.91517,30.66986-34.91517,30.96494,15.73079,30.66985,34.91517c.02666,19.15679-13.52348,34.88806-30.66985,34.88806Zm113.3414,0c-16.85082,0-30.66985-15.73127-30.66985-34.88806s13.52347-34.91517,30.66985-34.91517,30.96494,15.73079,30.66985,34.91517c0,19.15679-13.52394,34.88806-30.66985,34.88806Z"/></svg>