<?xml version="1.0" encoding="UTF-8"?><svg id="Layer_1" xmlns="http://www.w3.org/2000/svg" viewBox="0 0 119.12 53.31"><defs><style>.cls-1{fill:#f47421;}.cls-1,.cls-2{stroke-width:0px;}.cls-2{fill:#fff;}</style></defs><polygon class="cls-1" points="43.65 39.23 0 53.31 28.32 15.87 44.53 21.12 43.65 39.23"/><rect class="cls-1" x="10.46" width="108.66" height="47.96"/><path class="cls-2" d="M24.92,18.87v-8.94h1.27l4.92,6.62-.66.13v-6.76h1.63v8.94h-1.28l-4.85-6.67.6-.13v6.8h-1.63Z"/><path class="cls-2" d="M36.87,19.01c-.64,0-1.22-.15-1.75-.44-.52-.3-.94-.7-1.25-1.21-.31-.51-.46-1.1-.46-1.75s.15-1.24.46-1.75c.31-.51.72-.92,1.24-1.21s1.1-.44,1.75-.44,1.22.15,1.74.44.93.7,1.24,1.21c.31.51.46,1.09.46,1.76s-.16,1.24-.47,1.75c-.31.51-.73.92-1.25,1.21s-1.1.44-1.73.44ZM36.87,17.57c.35,0,.66-.08.93-.25s.48-.4.64-.7c.16-.3.23-.64.23-1.01s-.08-.72-.23-1.01c-.16-.29-.37-.52-.64-.7-.27-.17-.58-.26-.93-.26s-.68.09-.95.26c-.27.17-.49.4-.64.7-.16.29-.23.63-.23,1.01s.08.71.23,1.01c.16.3.37.53.64.7s.59.25.95.25Z"/><path class="cls-2" d="M43.03,18.87l-2.24-6.53h1.66l1.64,4.96h-.58s1.75-4.96,1.75-4.96h1.39l1.74,4.94h-.58s1.64-4.94,1.64-4.94h1.66l-2.24,6.53h-1.4l-1.78-5.17h.53l-1.8,5.17h-1.39Z"/><path class="cls-2" d="M53.51,18.87l3.08-8.94h2.11l3.08,8.94h-1.78l-.64-1.92h-3.46l-.65,1.92h-1.76ZM56.39,15.51h2.52l-1.49-4.45h.46l-1.49,4.45Z"/><path class="cls-2" d="M64.27,18.87l-2.57-6.53h1.72l1.86,5.14h-.64l1.87-5.14h1.72l-2.57,6.53h-1.39Z"/><path class="cls-2" d="M70.83,19.01c-.46,0-.85-.08-1.19-.23s-.6-.37-.78-.65c-.18-.28-.28-.61-.28-.99s.08-.68.24-.97c.16-.28.41-.52.74-.71.34-.19.76-.33,1.27-.41l2.14-.35v1.2l-1.84.31c-.31.06-.54.16-.7.3-.15.14-.23.33-.23.56s.09.4.26.53c.17.13.39.2.64.2.33,0,.62-.07.87-.21.25-.14.45-.33.59-.58.14-.25.21-.52.21-.82v-1.68c0-.28-.11-.51-.33-.7s-.51-.28-.87-.28c-.34,0-.63.09-.89.27-.26.18-.45.42-.57.71l-1.28-.62c.13-.34.33-.64.61-.89.28-.25.6-.45.98-.59.38-.14.78-.22,1.22-.22.54,0,1.01.1,1.42.29.41.2.73.47.95.82s.34.75.34,1.22v4.34h-1.49v-1.12l.34-.02c-.17.28-.37.51-.6.7s-.5.33-.79.43c-.3.1-.62.15-.98.15Z"/><path class="cls-2" d="M75.81,11.61v-1.68h1.57v1.68h-1.57ZM75.81,18.87v-6.53h1.57v6.53h-1.57Z"/><path class="cls-2" d="M78.83,18.87v-9.08h1.57v9.08h-1.57Z"/><path class="cls-2" d="M83.84,19.01c-.46,0-.85-.08-1.19-.23s-.6-.37-.78-.65c-.18-.28-.28-.61-.28-.99s.08-.68.24-.97c.16-.28.41-.52.74-.71.34-.19.76-.33,1.27-.41l2.14-.35v1.2l-1.84.31c-.31.06-.54.16-.7.3-.15.14-.23.33-.23.56s.09.4.26.53c.17.13.39.2.64.2.33,0,.62-.07.87-.21.25-.14.45-.33.59-.58.14-.25.21-.52.21-.82v-1.68c0-.28-.11-.51-.33-.7s-.51-.28-.87-.28c-.34,0-.63.09-.89.27-.26.18-.45.42-.57.71l-1.28-.62c.13-.34.33-.64.61-.89.28-.25.6-.45.98-.59.38-.14.78-.22,1.22-.22.54,0,1.01.1,1.42.29.41.2.73.47.95.82s.34.75.34,1.22v4.34h-1.49v-1.12l.34-.02c-.17.28-.37.51-.6.7s-.5.33-.79.43c-.3.1-.62.15-.98.15Z"/><path class="cls-2" d="M92.38,19.01c-.47,0-.91-.09-1.3-.28-.4-.19-.71-.46-.94-.81l.16-.31v1.26h-1.48v-9.08h1.57v3.85l-.24-.32c.22-.35.53-.63.91-.82.38-.2.83-.29,1.33-.29.62,0,1.17.15,1.67.46.5.3.89.71,1.18,1.22.29.51.44,1.09.44,1.73s-.14,1.21-.43,1.73-.68.93-1.18,1.23c-.5.3-1.06.45-1.69.45ZM92.2,17.57c.36,0,.68-.08.96-.25.28-.17.5-.4.65-.7.16-.3.23-.64.23-1.02s-.08-.72-.23-1.01c-.16-.29-.37-.52-.65-.7-.28-.17-.6-.26-.96-.26s-.65.08-.93.25-.49.4-.65.7c-.16.3-.23.64-.23,1.01s.08.72.23,1.02c.16.3.37.53.65.7s.59.25.93.25Z"/><path class="cls-2" d="M96.88,18.87v-9.08h1.57v9.08h-1.57Z"/><path class="cls-2" d="M103,19.01c-.67,0-1.26-.15-1.76-.46-.5-.3-.9-.72-1.18-1.24-.28-.52-.42-1.1-.42-1.73s.14-1.24.43-1.75c.28-.51.67-.91,1.16-1.21.49-.3,1.04-.44,1.65-.44.51,0,.96.08,1.35.25.39.17.72.4.99.7.27.3.48.63.62,1.01s.22.79.22,1.23c0,.11,0,.23-.02.35-.01.12-.03.22-.07.31h-5.04v-1.2h4.15l-.74.56c.07-.37.05-.7-.05-.98-.11-.29-.28-.52-.53-.68s-.54-.25-.88-.25-.62.08-.88.25c-.26.16-.45.4-.58.72-.13.32-.18.7-.15,1.15-.03.4.02.75.16,1.06.14.31.35.55.62.71.28.17.59.25.95.25s.67-.08.92-.23.45-.36.59-.61l1.27.62c-.13.31-.33.59-.6.83-.27.24-.59.43-.97.56-.37.14-.78.2-1.23.2Z"/><path class="cls-2" d="M28.78,36.69l-3.9-11.18h2.22l3.06,9.26h-.44l3.06-9.26h2.22l-3.89,11.18h-2.34Z"/><path class="cls-2" d="M39.22,36.87c-.84,0-1.58-.19-2.21-.57-.63-.38-1.12-.9-1.47-1.55-.35-.65-.53-1.37-.53-2.16s.18-1.55.53-2.18c.35-.64.84-1.14,1.46-1.51s1.3-.56,2.06-.56c.64,0,1.2.1,1.69.32.48.21.9.5,1.24.87.34.37.6.79.78,1.27.18.48.27.99.27,1.54,0,.14,0,.29-.02.44-.02.15-.04.28-.08.39h-6.31v-1.5h5.19l-.93.71c.09-.46.07-.87-.07-1.23-.13-.36-.36-.65-.66-.86-.31-.21-.67-.31-1.1-.31s-.78.1-1.1.31-.56.51-.73.9-.23.87-.19,1.43c-.04.5.03.94.2,1.33.17.39.44.68.78.89.35.21.74.32,1.19.32s.83-.09,1.15-.29c.32-.19.56-.45.74-.77l1.59.78c-.16.39-.41.74-.75,1.04-.34.3-.74.54-1.21.71-.47.17-.98.26-1.54.26Z"/><path class="cls-2" d="M44.53,36.69v-8.17h1.85v1.82l-.15-.27c.19-.61.49-1.04.89-1.28.41-.24.89-.36,1.46-.36h.48v1.74h-.71c-.56,0-1.01.17-1.35.52-.34.35-.51.83-.51,1.45v4.55h-1.97Z"/><path class="cls-2" d="M53.25,36.87c-.87,0-1.63-.21-2.27-.62-.65-.42-1.09-.98-1.33-1.69l1.47-.71c.21.46.5.82.88,1.08.38.26.79.39,1.25.39.36,0,.65-.08.86-.24.21-.16.31-.37.31-.63,0-.16-.04-.29-.13-.4-.09-.1-.2-.2-.35-.27-.15-.08-.3-.14-.47-.19l-1.34-.38c-.69-.2-1.21-.51-1.57-.92-.36-.41-.53-.9-.53-1.46,0-.5.13-.94.38-1.31.26-.38.61-.67,1.07-.88.46-.21.98-.32,1.57-.32.77,0,1.45.19,2.04.56.59.37,1.01.89,1.26,1.56l-1.5.71c-.14-.37-.38-.67-.71-.89-.33-.22-.7-.33-1.11-.33-.33,0-.59.08-.78.23-.19.15-.29.35-.29.59,0,.15.04.28.12.39.08.11.19.2.34.27.15.07.31.14.5.2l1.31.39c.67.2,1.19.5,1.55.9s.55.89.55,1.47c0,.49-.13.92-.39,1.3-.26.38-.62.67-1.08.88-.46.21-1,.32-1.62.32Z"/><path class="cls-2" d="M57.86,27.61v-2.1h1.97v2.1h-1.97ZM57.86,36.69v-8.17h1.97v8.17h-1.97Z"/><path class="cls-2" d="M65.64,36.87c-.8,0-1.53-.19-2.18-.56-.66-.37-1.18-.88-1.56-1.52s-.58-1.37-.58-2.19.19-1.55.58-2.19c.39-.64.9-1.15,1.55-1.52.65-.37,1.38-.56,2.19-.56s1.53.19,2.18.56,1.17.87,1.55,1.51.58,1.37.58,2.2-.2,1.55-.59,2.19-.91,1.15-1.56,1.52c-.65.37-1.37.56-2.16.56ZM65.64,35.07c.44,0,.83-.1,1.16-.31.33-.21.6-.5.8-.88.2-.38.29-.8.29-1.27s-.1-.9-.29-1.27c-.19-.37-.46-.66-.8-.87-.34-.22-.72-.32-1.16-.32s-.85.11-1.19.32-.61.51-.8.87-.29.79-.29,1.27.1.89.29,1.27.46.67.8.88c.34.21.74.31,1.19.31Z"/><path class="cls-2" d="M71.43,36.69v-8.17h1.85v1.61l-.15-.29c.19-.49.5-.86.94-1.12.44-.26.94-.38,1.52-.38s1.13.13,1.6.39.83.62,1.09,1.09c.26.47.39,1,.39,1.61v5.25h-1.97v-4.79c0-.36-.07-.67-.21-.93s-.33-.46-.58-.61c-.25-.14-.53-.22-.86-.22s-.61.07-.86.22c-.25.15-.45.35-.59.61-.14.26-.21.57-.21.93v4.79h-1.97Z"/><path class="cls-2" d="M83.17,36.69l4.65-9.46h-5.27v-1.73h7.42v1.73l-4.55,9.46h-2.25Z"/><path class="cls-2" d="M91.4,36.69v-2.1h1.98v2.1h-1.98Z"/><path class="cls-2" d="M100.54,36.87c-.89,0-1.67-.24-2.34-.72-.67-.48-1.19-1.16-1.57-2.03-.38-.87-.56-1.88-.56-3.03s.19-2.17.56-3.03.89-1.53,1.56-2.01,1.45-.72,2.34-.72,1.7.24,2.36.72,1.19,1.15,1.57,2.02c.38.87.57,1.87.57,3.03s-.19,2.16-.56,3.02c-.38.87-.9,1.54-1.57,2.03s-1.46.73-2.36.73ZM100.56,35.01c.51,0,.95-.16,1.31-.47s.64-.77.83-1.35c.2-.59.29-1.28.29-2.09s-.1-1.51-.29-2.09c-.19-.59-.48-1.03-.84-1.34s-.81-.47-1.33-.47-.93.16-1.29.47-.64.76-.83,1.34c-.2.59-.29,1.28-.29,2.09s.1,1.49.29,2.08.48,1.04.84,1.36c.37.32.8.48,1.31.48Z"/></svg>