<?xml version="1.0" encoding="utf-8"?>
<!-- Generator: Adobe Illustrator 25.4.1, SVG Export Plug-In . SVG Version: 6.00 Build 0)  -->
<svg version="1.1" id="Layer_1" xmlns="http://www.w3.org/2000/svg" xmlns:xlink="http://www.w3.org/1999/xlink" x="0px" y="0px"
	 viewBox="0 0 286.4 263.9" style="enable-background:new 0 0 286.4 263.9;" xml:space="preserve">
<style type="text/css">
	.st0{fill:#545CEC;}
	.st1{fill:none;}
</style>
<g>
	<g>
		<g>
			<g>
				<path class="st0" d="M62.7,263.9H6.4V85.3h56.3V263.9z M33.8,61.1L33.8,61.1C12.9,61.1,0,48.3,0,30.6S12.9,0,33.8,0
					c20.9,0,33.8,12.9,33.8,30.6S54.7,61.1,33.8,61.1z M286.4,263.9H222v-93.3c0-24.1-9.7-40.2-32.2-40.2
					c-17.7,0-25.7,11.3-30.6,22.5c-1.6,3.2-1.6,9.7-1.6,14.5v96.5H94.9c0,0,1.6-164.1,0-178.6h62.7v27.4
					c3.2-11.3,24.1-30.6,54.7-30.6c40.2,0,70.8,25.7,70.8,80.4v101.4L286.4,263.9L286.4,263.9z"/>
			</g>
		</g>
	</g>
</g>
<rect id="_x3C_Slice_x3E__5_" x="-165.7" y="-177" class="st1" width="611.4" height="611.4"/>
</svg>
