<?xml version="1.0" encoding="utf-8"?>
<!-- Generator: Adobe Illustrator 25.4.1, SVG Export Plug-In . SVG Version: 6.00 Build 0)  -->
<svg version="1.1" id="Layer_1" xmlns="http://www.w3.org/2000/svg" xmlns:xlink="http://www.w3.org/1999/xlink" x="0px" y="0px"
	 viewBox="0 0 460.6 557" style="enable-background:new 0 0 460.6 557;" xml:space="preserve">
<style type="text/css">
	.st0{fill:none;}
	.st1{fill:#545CEC;}
</style>
<rect id="_x3C_Slice_x3E__5_" x="-416" class="st0" width="611.4" height="611.4"/>
<g>
	<g>
		<path class="st1" d="M288.4,53.2v122.4c0,10.6,0.8,18.3,2.5,23.3c2.7,7.7,8.8,11.5,18.3,11.5c10.4,0,21-6.4,32-19.3v17.1h28.3
			V53.2h-28.3v118.4c-6.2,8.9-12.1,13.4-17.7,13.4c-3.7,0-5.9-2.3-6.5-6.8c-0.2-0.4-0.3-4-0.3-10.9V53.2H288.4z"/>
		<path class="st1" d="M223.8,210.4c14.3,0,25.3-5.3,32.9-15.8c5.8-7.7,8.7-19.9,8.7-36.7v-54.4c0-16.6-2.9-28.7-8.7-36.4
			c-7.7-10.6-18.6-15.9-32.9-15.9c-13.9,0-24.8,5.3-32.6,15.9c-5.8,7.7-8.7,19.8-8.7,36.4v54.4c0,16.6,2.9,28.8,8.7,36.7
			C199,205.1,209.9,210.4,223.8,210.4z M210.4,97.9c0-14.3,4.5-21.4,13.4-21.4c8.9,0,13.4,7.1,13.4,21.4v65.3
			c0,14.5-4.5,21.8-13.4,21.8c-8.9,0-13.4-7.2-13.4-21.8V97.9z"/>
		<path class="st1" d="M144.5,208.2V124L182.1,0h-31.7l-21.1,81.7L107.2,0H74.3c5.8,17.4,12.5,36.8,20.2,58.1
			c9.7,28.6,16.1,50.6,19,65.9v84.2L144.5,208.2L144.5,208.2L144.5,208.2z"/>
		<path class="st1" d="M434.7,257c-9.2-8.3-19.8-13.1-31.9-14.6c-38.1-4.1-95.6-6.2-172.5-6.2c-76.9,0-134.3,2.1-172.2,6.2
			c-12.2,1.5-22.9,6.3-32,14.6c-9.1,8.3-15.1,18.5-18,30.8C2.7,311.9,0,348.1,0,396.6c0,49.3,2.7,85.6,8.1,108.8
			c2.7,12.2,8.6,22.5,17.9,30.8c9.2,8.3,19.8,13.1,31.9,14.3c38.1,4.3,95.6,6.5,172.5,6.5c76.9,0,134.4-2.2,172.5-6.5
			c12-1.2,22.6-6,31.7-14.3c9.1-8.3,15.1-18.5,18-30.8c5.4-24,8.1-60.3,8.1-108.8c0-49.3-2.7-85.6-8.1-108.8
			C449.8,275.6,443.9,265.3,434.7,257z M131.5,319.2H98.2V496H67.1V319.2H34.5V290h97L131.5,319.2L131.5,319.2z M215.4,496h-27.7
			v-16.8c-11.2,12.6-21.8,19-31.7,19c-9.5,0-15.5-3.8-18-11.5c-1.7-5-2.5-12.5-2.5-22.7V342.5h27.7v113.1c0,6.6,0.1,10.3,0.3,10.9
			c0.6,4.3,2.8,6.5,6.5,6.5c5.6,0,11.5-4.3,17.7-13.1V342.5h27.7L215.4,496L215.4,496L215.4,496z M321.1,450
			c0,15.1-0.9,25.5-2.8,31.1c-3.5,11.4-10.9,17.1-22.1,17.1c-9.9,0-19.6-5.7-28.9-17.1V496h-27.7V290h27.7v67.4
			c8.9-11.2,18.5-16.8,28.9-16.8c11.2,0,18.5,5.8,22.1,17.4c1.9,5.4,2.8,15.6,2.8,30.8V450z M426.1,424.6h-55.6v27
			c0,14.3,4.8,21.4,14.3,21.4c6.8,0,11-3.7,12.4-11.2c0.4-2.1,0.6-8.4,0.6-19h28.3v4c0,10.2-0.2,16.2-0.6,18
			c-0.6,5.6-2.8,11.2-6.5,16.8c-7.5,11-18.6,16.5-33.6,16.5c-14.3,0-25.5-5.3-33.6-15.9c-6-7.7-9-19.7-9-36v-53.8
			c0-16.4,2.9-28.4,8.7-36.1c8.1-10.6,19.2-15.8,33.3-15.8c13.9,0,24.9,5.3,32.9,15.8c5.6,7.7,8.4,19.7,8.4,36.1L426.1,424.6
			L426.1,424.6L426.1,424.6z"/>
		<path class="st1" d="M384.5,365.8c-9.3,0-14,7.1-14,21.1v14.3h28V387C398.4,372.9,393.8,365.8,384.5,365.8z"/>
		<path class="st1" d="M281.3,365.8c-4.8,0-9.4,2.3-14,6.8v93.5c4.6,4.6,9.2,6.8,14,6.8c8.1,0,12.1-6.9,12.1-20.8v-65.6
			C293.4,372.8,289.4,365.8,281.3,365.8z"/>
	</g>
</g>
</svg>
