<?xml version="1.0" encoding="UTF-8"?><svg id="Layer_1" xmlns="http://www.w3.org/2000/svg" viewBox="0 0 119.2 53.3"><defs><style>.cls-1{fill:#f47421;}.cls-1,.cls-2{stroke-width:0px;}.cls-2{fill:#fff;}</style></defs><polygon class="cls-1" points="43.7 39.2 0 53.3 28.3 15.9 44.5 21.1 43.7 39.2"/><rect class="cls-1" x="10.5" width="108.7" height="48"/><path class="cls-2" d="M24.9,13.9V4.9h1.3l4.9,6.6-.7.1v-6.7h1.6v8.9h-1.3l-4.7-6.6.6-.1v6.8h-1.7Z"/><path class="cls-2" d="M36.9,14c-.6,0-1.2-.1-1.8-.4-.5-.3-.9-.7-1.2-1.2s-.5-1.1-.5-1.8.2-1.2.5-1.8c.3-.5.7-.9,1.2-1.2s1.1-.4,1.8-.4,1.2.1,1.7.4.9.7,1.2,1.2.5,1.1.5,1.8-.2,1.2-.5,1.8-.7.9-1.2,1.2-1.1.4-1.7.4h0ZM36.9,12.6c.3,0,.7-.1.9-.2s.5-.4.6-.7c.2-.3.2-.6.2-1s-.1-.7-.2-1c-.2-.3-.4-.5-.6-.7-.3-.2-.6-.3-.9-.3s-.7.1-1,.3-.5.4-.6.7c-.2.3-.2.6-.2,1s.1.7.2,1c.2.3.4.5.6.7s.6.2,1,.2Z"/><path class="cls-2" d="M43,13.9l-2.2-6.5h1.7l1.6,5h-.6l1.8-5h1.4l1.7,4.9h-.6l1.6-4.9h1.7l-2.2,6.5h-1.4l-1.8-5.2h.5l-1.8,5.2h-1.4Z"/><path class="cls-2" d="M53.5,13.9l3.1-8.9h2.1l3.1,8.9h-1.8l-.6-1.9h-3.5l-.7,1.9h-1.7ZM56.4,10.5h2.5l-1.5-4.4h.5l-1.5,4.4Z"/><path class="cls-2" d="M64.3,13.9l-2.6-6.5h1.7l1.9,5.1h-.6l1.9-5.1h1.7l-2.6,6.5h-1.4Z"/><path class="cls-2" d="M70.8,14c-.5,0-.8-.1-1.2-.2s-.6-.4-.8-.6c-.2-.3-.3-.6-.3-1s.1-.7.2-1c.2-.3.4-.5.7-.7.3-.2.8-.3,1.3-.4l2.1-.4v1.2l-1.8.3c-.3.1-.5.2-.7.3-.2.1-.2.3-.2.6s.1.4.3.5c.2.1.4.2.6.2.3,0,.6-.1.9-.2s.4-.3.6-.6.2-.5.2-.8v-1.7c0-.3-.1-.5-.3-.7s-.5-.3-.9-.3c-.3,0-.6.1-.9.3s-.4.4-.6.7l-1.3-.6c.1-.3.3-.6.6-.9s.6-.4,1-.6c.4-.1.8-.2,1.2-.2.5,0,1,.1,1.4.3s.7.5.9.8.3.8.3,1.2v4.3h-1.5v-1.1h.3c-.2.3-.4.5-.6.7s-.5.3-.8.4c0,.2-.3.2-.7.2h0Z"/><path class="cls-2" d="M75.8,6.6v-1.7h1.6v1.7s-1.6,0-1.6,0ZM75.8,13.9v-6.5h1.6v6.5h-1.6Z"/><path class="cls-2" d="M78.8,13.9V4.8h1.6v9.1s-1.6,0-1.6,0Z"/><path class="cls-2" d="M83.8,14c-.5,0-.8-.1-1.2-.2s-.6-.4-.8-.6c-.2-.3-.3-.6-.3-1s.1-.7.2-1c.2-.3.4-.5.7-.7.3-.2.8-.3,1.3-.4l2.1-.4v1.2l-1.8.3c-.3.1-.5.2-.7.3-.2.1-.2.3-.2.6s.1.4.3.5c.2.1.4.2.6.2.3,0,.6-.1.9-.2s.4-.3.6-.6.2-.5.2-.8v-1.7c0-.3-.1-.5-.3-.7s-.5-.3-.9-.3c-.3,0-.6.1-.9.3s-.4.4-.6.7l-1.3-.6c.1-.3.3-.6.6-.9s.6-.4,1-.6c.4-.1.8-.2,1.2-.2.5,0,1,.1,1.4.3s.7.5.9.8.3.8.3,1.2v4.3h-1.5v-1.1h.3c-.2.3-.4.5-.6.7s-.5.3-.8.4c0,.2-.3.2-.7.2h0Z"/><path class="cls-2" d="M92.4,14c-.5,0-.9-.1-1.3-.3-.4-.2-.7-.5-.9-.8l.2-.3v1.3h-1.5V4.8h1.6v3.9l-.2-.3c.2-.4.5-.6.9-.8s.8-.3,1.3-.3c.6,0,1.2.1,1.7.5.5.3.9.7,1.2,1.2s.4,1.1.4,1.7-.1,1.2-.4,1.7-.7.9-1.2,1.2-1.2.4-1.8.4h0ZM92.2,12.6c.4,0,.7-.1,1-.2s.5-.4.7-.7c.2-.3.2-.6.2-1s-.1-.7-.2-1c-.2-.3-.4-.5-.7-.7-.3-.2-.6-.3-1-.3s-.7.1-.9.2-.5.4-.7.7-.2.6-.2,1,.1.7.2,1c.2.3.4.5.7.7s.6.3.9.3h0Z"/><path class="cls-2" d="M96.9,13.9V4.8h1.6v9.1s-1.6,0-1.6,0Z"/><path class="cls-2" d="M103,14c-.7,0-1.3-.1-1.8-.5-.5-.3-.9-.7-1.2-1.2s-.4-1.1-.4-1.7.1-1.2.4-1.8c.3-.5.7-.9,1.2-1.2s1-.4,1.7-.4c.5,0,1,.1,1.3.2s.7.4,1,.7.5.6.6,1,.2.8.2,1.2v.4c0,.1,0,.2-.1.3h-5v-1.2h4.2l-.7.6c.1-.4.1-.7-.1-1-.1-.3-.3-.5-.5-.7s-.5-.2-.9-.2-.6.1-.9.2c-.3.2-.4.4-.6.7-.1.3-.2.7-.2,1.1s0,.7.2,1.1c.1.3.3.5.6.7.3.2.6.2.9.2s.7-.1.9-.2.4-.4.6-.6l1.3.6c-.1.3-.3.6-.6.8s-.6.4-1,.6c-.3.2-.7.3-1.1.3h0Z"/><path class="cls-2" d="M34.95,27.8c-.59,0-1.14-.11-1.64-.32s-.94-.52-1.3-.9-.63-.84-.79-1.35l1.41-.61c.22.53.55.95.97,1.25s.9.46,1.44.46c.3,0,.56-.05.78-.14.22-.1.39-.23.51-.39.12-.17.18-.37.18-.6,0-.27-.08-.5-.24-.68-.16-.18-.41-.32-.73-.42l-1.78-.57c-.72-.22-1.27-.56-1.63-1.01s-.55-.98-.55-1.58c0-.53.13-1,.39-1.41.26-.41.63-.73,1.1-.95.47-.23,1.01-.34,1.62-.34.56,0,1.07.1,1.53.29.47.2.87.47,1.2.81s.59.75.75,1.22l-1.4.62c-.18-.47-.46-.83-.82-1.08-.37-.25-.79-.38-1.27-.38-.28,0-.53.05-.75.14-.22.1-.38.23-.51.4-.12.17-.18.37-.18.61,0,.26.08.48.25.68.17.2.42.35.76.46l1.71.54c.74.24,1.3.57,1.67,1s.56.95.56,1.57c0,.53-.14,1-.41,1.41-.27.41-.65.73-1.14.96s-1.04.35-1.68.35Z"/><path class="cls-2" d="M41.16,27.65l-2.33-6.79h1.72l1.71,5.15h-.6s1.82-5.15,1.82-5.15h1.45l1.81,5.14h-.6s1.71-5.14,1.71-5.14h1.72l-2.33,6.79h-1.46l-1.85-5.38h.55l-1.87,5.38h-1.45Z"/><path class="cls-2" d="M52.27,27.8c-.47,0-.89-.08-1.24-.24-.35-.16-.62-.38-.81-.68-.19-.3-.29-.64-.29-1.03s.08-.71.25-1,.42-.54.77-.74c.35-.2.79-.34,1.32-.42l2.22-.36v1.25l-1.91.32c-.32.06-.57.16-.72.31-.16.15-.24.35-.24.59s.09.42.27.56c.18.14.4.21.67.21.34,0,.64-.07.9-.22.26-.15.47-.35.61-.61s.22-.54.22-.85v-1.75c0-.29-.11-.53-.34-.73-.23-.2-.53-.29-.9-.29-.35,0-.66.09-.93.28s-.47.43-.59.74l-1.33-.65c.13-.36.34-.67.63-.93.29-.26.63-.47,1.02-.62.39-.15.82-.22,1.27-.22.56,0,1.05.1,1.47.31.42.2.76.49.99.85.24.36.36.78.36,1.27v4.52h-1.55v-1.16l.35-.02c-.17.29-.38.53-.62.73-.24.2-.52.35-.82.45s-.65.16-1.02.16Z"/><path class="cls-2" d="M57.45,27.65v-6.79h1.54v1.34l-.12-.24c.16-.41.42-.72.78-.93.36-.21.78-.32,1.27-.32s.94.11,1.33.32.69.52.91.9c.22.39.32.83.32,1.34v4.37h-1.63v-3.98c0-.3-.06-.56-.17-.77s-.28-.38-.48-.51-.44-.18-.72-.18-.5.06-.71.18-.37.29-.49.51-.17.47-.17.77v3.98h-1.63Z"/><path class="cls-2" d="M67.21,27.65v-9.3h1.7v7.8h3.98v1.5h-5.68Z"/><path class="cls-2" d="M75.91,27.8c-.47,0-.89-.08-1.24-.24-.35-.16-.62-.38-.81-.68s-.29-.64-.29-1.03.08-.71.25-1c.17-.3.42-.54.77-.74s.79-.34,1.32-.42l2.22-.36v1.25l-1.91.32c-.32.06-.57.16-.72.31-.16.15-.24.35-.24.59s.09.42.27.56.4.21.67.21c.34,0,.64-.07.9-.22s.47-.35.61-.61.22-.54.22-.85v-1.75c0-.29-.11-.53-.34-.73-.23-.2-.53-.29-.91-.29-.35,0-.66.09-.93.28s-.47.43-.59.74l-1.33-.65c.13-.36.34-.67.63-.93.29-.26.63-.47,1.02-.62.39-.15.82-.22,1.27-.22.56,0,1.05.1,1.47.31.42.2.75.49.99.85.24.36.36.78.36,1.27v4.52h-1.55v-1.16l.35-.02c-.17.29-.38.53-.62.73-.24.2-.52.35-.82.45s-.65.16-1.02.16Z"/><path class="cls-2" d="M81.09,27.65v-9.45h1.63v6.19l-.62-.19,3.2-3.34h2.03l-2.51,2.73,2.56,4.06h-1.87l-2.22-3.52.97-.2-2.05,2.2.51-1v2.52h-1.63Z"/><path class="cls-2" d="M91.39,27.8c-.7,0-1.31-.16-1.83-.47-.52-.32-.93-.74-1.22-1.29-.29-.54-.44-1.14-.44-1.8s.15-1.29.44-1.82c.29-.53.7-.95,1.21-1.25s1.08-.46,1.72-.46c.53,0,1,.09,1.4.26s.75.42,1.03.72c.28.31.5.66.65,1.05.15.4.22.82.22,1.28,0,.12,0,.24-.02.36-.01.12-.04.23-.07.32h-5.24v-1.25h4.32l-.77.59c.07-.38.06-.72-.06-1.02-.11-.3-.29-.54-.55-.71-.25-.17-.56-.26-.92-.26s-.65.09-.91.26c-.27.17-.47.42-.61.75-.14.33-.19.73-.16,1.19-.03.42.02.78.17,1.1s.36.57.65.74.62.26.99.26.69-.08.96-.24c.26-.16.47-.37.62-.64l1.32.65c-.13.32-.34.61-.62.86s-.62.45-1,.59c-.39.14-.81.21-1.28.21Z"/><path class="cls-2" d="M40.83,42.77c-.72,0-1.35-.15-1.9-.45-.55-.3-.99-.71-1.3-1.24-.32-.52-.47-1.12-.47-1.78v-5.98h1.7v5.89c0,.38.08.73.26,1.04.17.31.41.55.71.72.3.17.64.26,1.02.26s.73-.09,1.03-.26c.3-.17.53-.41.7-.72.17-.31.26-.65.26-1.04v-5.89h1.7v5.98c0,.67-.16,1.26-.47,1.78-.32.52-.75.94-1.3,1.24-.55.3-1.19.45-1.9.45Z"/><path class="cls-2" d="M46.07,45.12v-9.29h1.54v1.35l-.15-.34c.23-.37.55-.65.95-.85s.86-.31,1.39-.31c.64,0,1.22.16,1.73.47.52.32.93.74,1.23,1.27s.46,1.13.46,1.8-.15,1.26-.45,1.8c-.3.54-.71.97-1.22,1.28-.52.31-1.1.47-1.76.47-.49,0-.94-.1-1.35-.29s-.74-.48-.98-.84l.26-.32v3.81h-1.63ZM49.59,41.28c.37,0,.71-.09,1-.26.29-.17.52-.42.68-.72.16-.31.24-.66.24-1.06s-.08-.75-.24-1.05c-.16-.3-.39-.54-.68-.72-.29-.18-.62-.27-1-.27s-.68.09-.97.26c-.29.17-.51.42-.67.73-.16.31-.24.66-.24,1.05s.08.75.24,1.06c.16.31.39.55.67.72.29.17.61.26.97.26Z"/><path class="cls-2" d="M57.61,42.77c-.66,0-1.24-.16-1.76-.47-.52-.31-.92-.74-1.22-1.28-.3-.54-.45-1.14-.45-1.8s.15-1.26.45-1.8.71-.96,1.23-1.27c.52-.32,1.1-.47,1.74-.47.52,0,.98.1,1.38.31s.72.49.95.85l-.25.34v-4.01h1.64v9.45h-1.55v-1.31l.17.32c-.23.37-.56.65-.97.84s-.87.29-1.36.29ZM57.79,41.28c.37,0,.7-.09.99-.26.28-.17.51-.42.67-.72.16-.31.24-.66.24-1.06s-.08-.74-.24-1.05c-.16-.31-.38-.56-.67-.73-.28-.17-.61-.26-.99-.26s-.69.09-.99.27-.52.42-.68.72-.24.66-.24,1.05.08.75.24,1.06c.16.31.39.55.68.72.29.17.62.26.99.26Z"/><path class="cls-2" d="M64.9,42.77c-.47,0-.89-.08-1.24-.24-.35-.16-.62-.38-.81-.68-.19-.29-.29-.64-.29-1.03s.08-.71.25-1c.17-.29.42-.54.77-.74.35-.2.79-.34,1.32-.42l2.22-.36v1.25l-1.91.33c-.33.06-.57.16-.72.31-.16.15-.24.35-.24.59s.09.42.27.56c.18.14.4.21.67.21.34,0,.64-.07.91-.22.26-.15.47-.35.61-.61s.22-.54.22-.85v-1.75c0-.29-.11-.53-.34-.73-.23-.2-.53-.29-.9-.29-.35,0-.66.09-.93.28-.27.19-.47.44-.59.74l-1.33-.65c.13-.36.34-.67.63-.93.29-.26.63-.47,1.02-.62.39-.15.82-.22,1.27-.22.56,0,1.05.1,1.47.31.42.2.76.49.99.85.24.36.36.78.36,1.27v4.52h-1.55v-1.16l.35-.03c-.17.29-.38.53-.62.73-.24.2-.52.34-.82.45-.31.1-.65.16-1.02.16Z"/><path class="cls-2" d="M73.05,42.7c-.77,0-1.36-.21-1.78-.63-.42-.42-.63-1.01-.63-1.78v-3h-1.17v-1.46h.12c.33,0,.59-.09.77-.26.18-.17.27-.43.27-.76v-.52h1.63v1.55h1.56v1.46h-1.56v2.91c0,.22.04.42.12.57s.2.28.38.36c.17.08.39.12.65.12.06,0,.13,0,.21-.01.08,0,.16-.02.23-.02v1.4c-.12.02-.25.03-.4.05-.15.02-.29.03-.41.03Z"/><path class="cls-2" d="M78.26,42.77c-.7,0-1.31-.16-1.83-.47s-.93-.75-1.22-1.29c-.29-.54-.44-1.14-.44-1.8s.15-1.29.44-1.82c.29-.53.7-.95,1.21-1.25.51-.31,1.08-.46,1.72-.46.53,0,1,.09,1.4.26s.75.42,1.03.72c.28.31.5.66.65,1.05.15.4.22.82.22,1.28,0,.12,0,.24-.02.36-.01.12-.04.23-.07.32h-5.24v-1.25h4.32l-.77.59c.07-.38.06-.72-.06-1.02-.11-.3-.29-.54-.55-.71s-.56-.26-.92-.26-.65.08-.91.26c-.27.17-.47.42-.61.75-.14.33-.19.73-.16,1.19-.03.42.02.78.17,1.1s.36.57.65.74.62.26.99.26.69-.08.96-.24c.26-.16.47-.37.62-.64l1.32.65c-.13.32-.34.61-.62.86-.28.25-.62.45-1,.59s-.81.21-1.28.21Z"/><path class="cls-2" d="M85.32,42.63l3.16-4.07.29.3c-.12.09-.25.17-.36.22-.12.06-.24.1-.37.12-.13.03-.27.04-.42.04-.57,0-1.07-.13-1.51-.39-.44-.26-.79-.61-1.04-1.05s-.38-.95-.38-1.52c0-.6.14-1.13.42-1.6s.66-.83,1.15-1.1c.49-.27,1.04-.41,1.67-.41s1.19.13,1.67.4.86.63,1.14,1.09c.28.46.42.99.42,1.59,0,.3-.03.6-.1.9-.07.3-.19.62-.36.95-.17.34-.41.72-.73,1.14l-2.6,3.37h-2.03ZM87.9,37.82c.29,0,.55-.06.78-.19.23-.13.41-.31.54-.55.13-.24.2-.51.2-.81,0-.32-.07-.59-.21-.82-.14-.23-.32-.42-.54-.55-.22-.13-.48-.2-.77-.2s-.54.07-.77.2c-.23.13-.42.32-.56.55-.14.23-.21.51-.21.82s.07.57.21.81c.14.24.32.42.56.55.23.13.49.19.77.19Z"/></svg>