<?xml version="1.0" encoding="utf-8"?>
<!-- Generator: Adobe Illustrator 26.0.1, SVG Export Plug-In . SVG Version: 6.00 Build 0)  -->
<svg version="1.1" id="Layer_1" xmlns="http://www.w3.org/2000/svg" xmlns:xlink="http://www.w3.org/1999/xlink" x="0px" y="0px"
	 viewBox="0 0 383.18 383.19" style="enable-background:new 0 0 383.18 383.19;" xml:space="preserve">
<style type="text/css">
	.st0{fill:#666666;}
</style>
<g>
	<path class="st0" d="M179.57,0c7.98,0,15.97,0,23.95,0c6.52,0.86,13.08,1.52,19.56,2.62c36.41,6.18,68.49,21.56,95.91,46.23
		c32.76,29.47,53.32,65.95,61.18,109.4c1.28,7.08,2.01,14.26,3,21.4c0,7.98,0,15.97,0,23.95c-0.21,0.83-0.54,1.66-0.6,2.5
		c-2.76,36.21-14.65,69.19-36.39,98.2c-36.81,49.12-86.09,75.95-147.51,78.68c-46.87,2.08-89.22-11.88-125.78-41.33
		c-47-37.86-71.59-87.37-72.85-147.83c-0.82-39.37,10.02-75.72,32.2-108.27c30.68-45.01,72.87-72.85,126.66-82.64
		C165.75,1.67,172.68,0.96,179.57,0z M22.86,180.15c22.86,0,45.23,0,66.69,0c2.89-22.8,5.74-45.24,8.61-67.87c-0.58,0-1.94,0-3.3,0
		c-12.72,0-25.43-0.02-38.15,0.01c-4.85,0.01-10.99-1.62-14.21,0.72c-3.73,2.7-5.11,8.85-7.12,13.66
		C28.28,143.69,23.99,161.39,22.86,180.15z M284.94,112.28c2.87,22.7,5.72,45.23,8.58,67.86c21.76,0,44.13,0,66.59,0
		c0-0.76,0.03-1.25,0-1.74c-1.62-22.67-7.82-44.05-18.3-64.17c-0.54-1.03-2.49-1.83-3.8-1.86c-9.1-0.16-18.2-0.08-27.3-0.08
		C301.86,112.28,293.02,112.28,284.94,112.28z M180.17,112.55c-0.65-0.12-1.01-0.24-1.36-0.24c-17.95-0.01-35.89,0.03-53.84-0.08
		c-2.39-0.01-2.78,1.14-3.25,3.04c-4.17,16.85-6.55,33.97-7.88,51.25c-0.35,4.53-0.44,9.08-0.65,13.67c22.58,0,44.71,0,66.98,0
		C180.17,157.59,180.17,135.2,180.17,112.55z M202.98,112.28c0,23,0,45.39,0,67.83c22.42,0,44.63,0,66.95,0
		c-0.76-22.38-3.49-44.2-8.7-65.7c-0.56-2.32-1.95-2.14-3.59-2.13c-14.08,0.01-28.16,0.01-42.25,0.01
		C211.31,112.28,207.23,112.28,202.98,112.28z M89.58,203.04c-21.8,0-44.06,0-66.56,0c0,0.9-0.05,1.62,0.01,2.34
		c1.64,22.14,7.69,43.06,17.84,62.77c0.57,1.1,2.7,1.97,4.11,1.99c15.95,0.14,31.9,0.09,47.86,0.09c1.96,0,3.92,0,5.17,0
		C95.19,247.74,92.4,225.55,89.58,203.04z M285.11,270.08c-0.13-0.02,0.48,0.12,1.09,0.13c17.57,0.01,35.15,0.07,52.72-0.1
		c1.27-0.01,3.08-1.41,3.71-2.64c6.03-11.79,10.77-24.11,13.51-37.07c1.89-8.94,3.12-18.01,4.69-27.32c-23.4,0-45.77,0-67.33,0
		C290.68,225.58,287.9,247.78,285.11,270.08z M180.14,203.06c-22.41,0-44.55,0-66.96,0c0.75,22.77,3.5,45.03,9.07,66.98
		c19.41,0,38.56,0,57.89,0C180.14,247.7,180.14,225.55,180.14,203.06z M202.96,270.04c19.43,0,38.59,0,57.91,0
		c5.51-22.05,8.34-44.29,9.04-67c-22.5,0-44.64,0-66.95,0C202.96,225.38,202.96,247.53,202.96,270.04z M180.13,359.5
		c0-22.96,0-44.71,0-66.64c-16.96,0-33.73,0-51.41,0c3.6,7.99,6.73,15.69,10.45,23.08c6.78,13.46,15.02,25.93,27.22,35.17
		C170.47,354.2,175.15,356.49,180.13,359.5z M203.09,292.82c0,21.81,0,43.65-0.01,65.48c17.47-3.18,46.37-40.68,50.39-65.48
		C236.77,292.82,220.09,292.82,203.09,292.82z M180.15,24.94c-17.27,2.95-48.23,42.99-50.12,64.7c16.65,0,33.3,0,50.12,0
		C180.15,67.95,180.15,46.45,180.15,24.94z M253.37,89.71c-0.05-0.48-0.02-0.87-0.15-1.19c-1.07-2.79-2.08-5.6-3.26-8.34
		c-7.18-16.7-15.77-32.49-29.42-44.94c-5.07-4.63-10.67-8.44-17.51-10.66c0,21.92,0,43.49,0,65.14
		C219.97,89.71,236.63,89.71,253.37,89.71z M249.57,350.13c31.4-11.41,56.96-30.43,77.55-57.45c-13.48,0-26.06-0.01-38.63,0.01
		c-3.48,0.01-7.82-1.12-10.2,0.52c-2.35,1.62-2.76,6.09-3.96,9.33C268.06,319.41,260.09,335.4,249.57,350.13z M55.94,292.68
		c20.8,27.1,46.31,46.17,78.13,58c-3.46-5.32-6.56-9.83-9.39-14.51c-7.78-12.83-13.59-26.55-18.47-40.71
		c-0.38-1.11-1.77-2.65-2.7-2.66C87.97,292.63,72.41,292.68,55.94,292.68z M249.73,32.77c5.27,9.07,10.87,17.65,15.36,26.78
		c4.49,9.13,7.79,18.85,11.84,28.21c0.44,1.02,2.36,1.97,3.6,1.98c14.34,0.14,28.68,0.09,43.02,0.07c0.78,0,1.57-0.19,2.75-0.34
		C305.93,63.12,280.6,44.36,249.73,32.77z M133.51,33.15c-30.99,11.22-56.37,29.97-76.53,56.1c0.57,0.32,0.77,0.52,0.97,0.52
		c15.21,0.03,30.42,0.08,45.64-0.05c0.93-0.01,2.36-1.24,2.69-2.21C112.95,68.23,121.46,49.89,133.51,33.15z"/>
</g>
</svg>
